<svg xmlns="http://www.w3.org/2000/svg" data-name="icon" viewBox="0 0 18 18">
  <defs/>
  <defs>
    <linearGradient id="a" x1="9.85" x2="7.6" y1="15.51" y2="2.73" gradientUnits="userSpaceOnUse">
      <stop offset=".15" stop-color="#0078d4"/>
      <stop offset=".8" stop-color="#5ea0ef"/>
      <stop offset="1" stop-color="#83b9f9"/>
    </linearGradient>
  </defs>
  <path fill="url(#a)" d="M17.5 11a3.88 3.88 0 00-3.31-3.76 4.86 4.86 0 00-4.96-4.71 4.98 4.98 0 00-4.75 3.3A4.6 4.6 0 00.5 10.3a4.67 4.67 0 004.79 4.55c.14 0 .28 0 .42-.02h7.75a.76.76 0 00.2-.03A3.9 3.9 0 0017.5 11z"/>
  <path fill="#f2f2f2" d="M12.9 11.4V8H12v4.13h2.46v-.73zM5.76 9.73a1.82 1.82 0 01-.51-.31.44.44 0 01-.12-.32.34.34 0 01.15-.3.68.68 0 01.42-.12 1.62 1.62 0 011 .29v-.86a2.58 2.58 0 00-1-.16 1.64 1.64 0 00-1.09.34 1.08 1.08 0 00-.42.89c0 .51.32.91 1 1.21a2.9 2.9 0 01.62.36.42.42 0 01.15.32.38.38 0 01-.16.31.8.8 0 01-.45.11 1.66 1.66 0 01-1.09-.42V12a2.17 2.17 0 001.07.24 1.88 1.88 0 001.18-.33 1.08 1.08 0 00.33-.91 1.05 1.05 0 00-.25-.7 2.42 2.42 0 00-.83-.57zM11 11.32A2.2 2.2 0 0011 9a1.8 1.8 0 00-.7-.75 2 2 0 00-1-.26 2.11 2.11 0 00-1.08.27 1.86 1.86 0 00-.73.74 2.46 2.46 0 00-.26 1.14 2.26 2.26 0 00.24 1 1.77 1.77 0 00.69.74 2.06 2.06 0 001 .3l.86 1h1.21L10 12.08a1.79 1.79 0 001-.76zm-1-.25a.94.94 0 01-.76.35.92.92 0 01-.76-.36 1.52 1.52 0 01-.29-1 1.53 1.53 0 01.29-1 1 1 0 01.78-.37.87.87 0 01.75.37 1.62 1.62 0 01.27 1 1.46 1.46 0 01-.28 1.01z"/>
</svg>
